<svg xmlns="http://www.w3.org/2000/svg" viewBox="0 0 64 64" fill="none">
  <defs>
    <linearGradient id="ag" x1="0" y1="0" x2="1" y2="1">
      <stop offset="0%" stop-color="#e63946"/>
      <stop offset="100%" stop-color="#c1121f"/>
    </linearGradient>
  </defs>
  <!-- Gear -->
  <path d="M32 6 L36 14 L44 11 L44 20 L52 24 L48 30 L54 36 L47 40 L48 48 L40 48 L38 56 L32 52 L26 56 L24 48 L16 48 L17 40 L10 36 L16 30 L12 24 L20 20 L20 11 L28 14Z" fill="#2b2d42"/>
  <circle cx="32" cy="32" r="12" fill="url(#ag)"/>
  <circle cx="32" cy="32" r="5" fill="#2b2d42"/>
  <!-- Wrench -->
  <g transform="translate(26, 44) rotate(-45)">
    <rect x="0" y="0" width="5" height="20" rx="2" fill="#e63946"/>
    <rect x="-1.5" y="-2" width="8" height="5" rx="2" fill="#e63946"/>
    <rect x="-0.5" y="16" width="6" height="6" rx="3" fill="#e63946"/>
    <rect x="1" y="18" width="3" height="2.5" rx="1" fill="#2b2d42"/>
  </g>
</svg>